<svg fill="none" xmlns="http://www.w3.org/2000/svg" viewBox="0 0 134 40">
  <path d="M129.037 39.5H4.963C2.463 39.5.5 37.527.5 35V5C.5 2.473 2.463.5 4.963.5h124.074c2.5 0 4.463 1.973 4.463 4.5v30c0 2.527-1.963 4.5-4.463 4.5Z" fill="#000" stroke="#A6A6A6"/>
  <path d="M10.364 7.333c-.273.303-.364.808-.364 1.415V31.09c0 .607.182 1.112.456 1.416l.09.1 11.296-12.535v-.202L10.364 7.333Z" fill="url(#a)"/>
  <path d="m25.489 24.317-3.735-4.145v-.303l3.735-4.145.09.1 4.464 2.831c1.276.81 1.276 2.123 0 2.932l-4.554 2.73Z" fill="url(#b)"/>
  <path d="m25.58 24.216-3.827-4.246-11.386 12.637c.455.506 1.093.506 1.912.101l13.3-8.492Z" fill="url(#c)"/>
  <path d="m25.58 15.723-13.3-8.39c-.82-.506-1.458-.405-1.913.1L21.753 19.97l3.826-4.247Z" fill="url(#d)"/>
  <path opacity=".2" d="m26.8 25.97-14.393 7.232c-.794.441-1.49.353-1.986 0l-.099.089.1.088c.496.353 1.19.44 1.985 0l14.392-7.41Z" fill="#000"/>
  <path opacity=".2" d="M10.321 33.202c-.297-.264-.397-.706-.397-1.235v.089c0 .529.199.97.497 1.234v-.088h-.1Zm21.44-9.702-4.963 2.47.1.088 4.863-2.47c.695-.353.993-.794.993-1.235 0 .441-.397.794-.993 1.147Z" fill="#000"/>
  <path d="M64.655 13.223c-2.103 0-3.768 1.503-3.768 3.592 0 2.005 1.665 3.592 3.768 3.592 2.102 0 3.767-1.504 3.767-3.592 0-2.172-1.665-3.592-3.767-3.592Zm0 5.68c-1.14 0-2.103-.919-2.103-2.172 0-1.253.964-2.172 2.103-2.172 1.138 0 2.102.836 2.102 2.172 0 1.253-.964 2.172-2.102 2.172Zm-8.148-5.68c-2.103 0-3.767 1.503-3.767 3.592 0 2.005 1.664 3.592 3.767 3.592 2.102 0 3.767-1.504 3.767-3.592 0-2.172-1.665-3.592-3.767-3.592Zm0 5.68c-1.139 0-2.103-.919-2.103-2.172 0-1.253.964-2.172 2.103-2.172 1.139 0 2.102.836 2.102 2.172 0 1.253-.963 2.172-2.102 2.172Zm-9.725-4.594v1.503h3.767c-.087.836-.438 1.504-.876 1.922-.525.5-1.401 1.085-2.89 1.085-2.366 0-4.118-1.754-4.118-4.01 0-2.255 1.84-4.009 4.117-4.009 1.227 0 2.19.501 2.891 1.086l1.14-1.086c-.964-.835-2.191-1.504-3.943-1.504-3.154 0-5.87 2.507-5.87 5.514s2.716 5.513 5.87 5.513c1.752 0 2.979-.501 4.03-1.587 1.051-1.002 1.402-2.423 1.402-3.509 0-.334 0-.668-.088-.918h-5.432Zm39.775 1.17c-.35-.836-1.227-2.256-3.154-2.256-1.927 0-3.504 1.42-3.504 3.592 0 2.005 1.577 3.592 3.68 3.592 1.664 0 2.715-1.003 3.066-1.587l-1.227-.836c-.438.585-.964 1.003-1.84 1.003-.876 0-1.401-.334-1.84-1.086l4.994-2.005-.175-.418Zm-5.081 1.169c0-1.337 1.139-2.089 1.927-2.089.613 0 1.226.334 1.402.752l-3.33 1.337Zm-4.118 3.425h1.664V9.63h-1.664v10.442Zm-2.628-6.099c-.438-.417-1.14-.835-2.015-.835-1.84 0-3.592 1.587-3.592 3.592s1.664 3.509 3.592 3.509c.876 0 1.577-.418 1.927-.836h.088v.502c0 1.336-.789 2.088-2.015 2.088-.964 0-1.665-.668-1.84-1.253l-1.402.585c.438.918 1.49 2.088 3.33 2.088 1.927 0 3.504-1.086 3.504-3.676V13.39H74.73v.584Zm-1.928 4.93c-1.139 0-2.102-.92-2.102-2.173 0-1.253.963-2.172 2.102-2.172 1.14 0 2.015.92 2.015 2.172 0 1.253-.876 2.172-2.015 2.172ZM94.18 9.63h-3.942v10.442H91.9v-3.927h2.278c1.84 0 3.592-1.253 3.592-3.258 0-2.004-1.752-3.257-3.592-3.257Zm.088 5.012H91.9V11.05h2.366c1.226 0 1.927 1.002 1.927 1.754-.088.919-.788 1.838-1.927 1.838Zm10.075-1.504c-1.227 0-2.453.501-2.891 1.587l1.489.585c.35-.585.876-.752 1.489-.752.876 0 1.665.501 1.752 1.337v.083c-.262-.167-.963-.417-1.664-.417-1.577 0-3.154.835-3.154 2.339 0 1.42 1.314 2.339 2.716 2.339 1.139 0 1.664-.502 2.102-1.003h.088v.836h1.577v-4.01c-.175-1.838-1.665-2.924-3.504-2.924Zm-.176 5.764c-.525 0-1.314-.25-1.314-.919 0-.835.964-1.086 1.753-1.086.7 0 1.051.167 1.489.334-.175 1.003-1.051 1.671-1.928 1.671Zm9.199-5.513-1.839 4.51h-.088l-1.927-4.51h-1.753l2.892 6.348-1.665 3.509h1.665l4.468-9.857h-1.753Zm-14.718 6.683h1.665V9.63h-1.665v10.442ZM41.419 28.845v-.567c0-.167.032-.343.095-.528a2.3 2.3 0 0 1 .262-.531c.112-.17.244-.314.396-.434l.436.313c-.12.175-.222.358-.307.549-.084.19-.127.398-.127.623v.575h-.755ZM45.065 33H43.11v-6.044h2.018c.592 0 1.101.121 1.526.363.425.24.75.585.977 1.036.228.449.342.987.342 1.614 0 .63-.115 1.17-.345 1.623-.228.453-.559.801-.992 1.045-.432.242-.956.363-1.57.363Zm-1.044-.797h.994c.46 0 .843-.086 1.148-.26.305-.175.533-.427.685-.758.151-.332.227-.738.227-1.216 0-.474-.076-.876-.227-1.207a1.605 1.605 0 0 0-.67-.752c-.297-.171-.666-.257-1.107-.257h-1.05v4.45Zm4.753.797v-6.044h3.789v.785h-2.877v1.842h2.68v.782h-2.68v1.85h2.912V33h-3.824Zm9.553-6.044V33h-.838l-3.072-4.433h-.057V33h-.911v-6.044h.843l3.075 4.439h.057v-4.439h.903ZM61.702 33h-.968l2.175-6.044h1.053L66.137 33h-.968l-1.708-4.946h-.048L61.702 33Zm.162-2.367h3.14v.768h-3.14v-.768ZM66.678 33v-6.044h.911v5.259h2.739V33h-3.65Zm5.27-6.044V33h-.912v-6.044h.912Zm5.873 0V33h-.838l-3.072-4.433h-.056V33h-.912v-6.044h.844l3.075 4.439h.056v-4.439h.903Z" fill="#fff"/>
  <defs>
    <linearGradient id="a" x1="20.749" y1="8.556" x2="3.874" y2="23.76" gradientUnits="userSpaceOnUse">
      <stop stop-color="#00A0FF"/>
      <stop offset=".007" stop-color="#00A1FF"/>
      <stop offset=".26" stop-color="#00BEFF"/>
      <stop offset=".512" stop-color="#00D2FF"/>
      <stop offset=".76" stop-color="#00DFFF"/>
      <stop offset="1" stop-color="#00E3FF"/>
    </linearGradient>
    <linearGradient id="b" x1="31.714" y1="19.971" x2="9.672" y2="19.971" gradientUnits="userSpaceOnUse">
      <stop stop-color="#FFE000"/>
      <stop offset=".409" stop-color="#FFBD00"/>
      <stop offset=".775" stop-color="orange"/>
      <stop offset="1" stop-color="#FF9C00"/>
    </linearGradient>
    <linearGradient id="c" x1="23.509" y1="22.291" x2=".625" y2="42.91" gradientUnits="userSpaceOnUse">
      <stop stop-color="#FF3A44"/>
      <stop offset="1" stop-color="#C31162"/>
    </linearGradient>
    <linearGradient id="d" x1="7.54" y1="-.072" x2="17.759" y2="9.136" gradientUnits="userSpaceOnUse">
      <stop stop-color="#32A071"/>
      <stop offset=".069" stop-color="#2DA771"/>
      <stop offset=".476" stop-color="#15CF74"/>
      <stop offset=".801" stop-color="#06E775"/>
      <stop offset="1" stop-color="#00F076"/>
    </linearGradient>
  </defs>
</svg>