<svg viewBox="0 0 40 40" fill="none" xmlns="http://www.w3.org/2000/svg">
<path fill-rule="evenodd" clip-rule="evenodd" d="M3.846 23.212L3.84593 23.2119L3.84593 7.75485C3.84593 3.89645 6.94214 0.769287 10.7623 0.769287H23.0239C27.029 0.769287 30.2946 4.05204 30.2946 8.09713V9.44308L30.2947 9.44316V24.9002C30.2947 28.7586 27.1985 31.8858 23.3783 31.8858H11.1167C7.11166 31.8858 3.846 28.603 3.846 24.5579V23.212Z" fill="url(#paint0_linear_1012_47350)"/>
<g opacity="0.5" filter="url(#filter0_f_1012_47350)">
<rect x="8.84604" y="23.1416" width="16.1538" height="13.8462" rx="1.34615" transform="rotate(-90 8.84604 23.1416)" fill="#FC5B9D"/>
</g>
<g filter="url(#filter1_b_1012_47350)">
<path d="M16.576 7.8374L28.0141 7.8374L36.0774 16.5109V31.968C36.0774 35.8263 32.9812 38.9535 29.161 38.9535H16.8994C12.8944 38.9535 9.62874 35.6708 9.62874 31.6257L9.62874 14.8541C9.62874 10.9957 12.7403 7.8374 16.576 7.8374Z" fill="#FD5D9E" fill-opacity="0.5"/>
<path d="M28.1127 7.74575C28.0872 7.71835 28.0515 7.70279 28.0141 7.70279L16.576 7.70279C12.6646 7.70279 9.49412 10.9228 9.49412 14.8541L9.49412 31.6257C9.49412 35.7442 12.8192 39.0881 16.8994 39.0881H29.161C33.0568 39.0881 36.2121 35.8994 36.2121 31.968V16.5109C36.2121 16.4769 36.1992 16.4441 36.176 16.4192L28.1127 7.74575Z" stroke="url(#paint1_linear_1012_47350)" stroke-width="0.269231" stroke-linecap="round" stroke-linejoin="round"/>
</g>
<mask id="path-5-inside-1_1012_47350" fill="white">
<path fill-rule="evenodd" clip-rule="evenodd" d="M22.7366 20.0437H17.53C16.8984 20.0437 16.3747 20.5727 16.3747 21.2106C16.3747 21.8484 16.8984 22.3619 17.53 22.3619H22.7366C23.3681 22.3619 23.8919 21.8484 23.8919 21.2106C23.8919 20.5727 23.3681 20.0437 22.7366 20.0437ZM17.53 30.1405H25.9098C26.5413 30.1405 27.0651 29.6115 27.0651 28.9736C27.0651 28.3357 26.5413 27.8223 25.9098 27.8223H17.53C16.8984 27.8223 16.3747 28.3357 16.3747 28.9736C16.3747 29.6115 16.8984 30.1405 17.53 30.1405Z"/>
</mask>
<path fill-rule="evenodd" clip-rule="evenodd" d="M22.7366 20.0437H17.53C16.8984 20.0437 16.3747 20.5727 16.3747 21.2106C16.3747 21.8484 16.8984 22.3619 17.53 22.3619H22.7366C23.3681 22.3619 23.8919 21.8484 23.8919 21.2106C23.8919 20.5727 23.3681 20.0437 22.7366 20.0437ZM17.53 30.1405H25.9098C26.5413 30.1405 27.0651 29.6115 27.0651 28.9736C27.0651 28.3357 26.5413 27.8223 25.9098 27.8223H17.53C16.8984 27.8223 16.3747 28.3357 16.3747 28.9736C16.3747 29.6115 16.8984 30.1405 17.53 30.1405Z" fill="url(#paint2_linear_1012_47350)"/>
<path d="M17.53 20.1514H22.7366V19.936H17.53V20.1514ZM16.4824 21.2106C16.4824 20.6311 16.9589 20.1514 17.53 20.1514V19.936C16.8379 19.936 16.267 20.5142 16.267 21.2106H16.4824ZM17.53 22.2542C16.957 22.2542 16.4824 21.7881 16.4824 21.2106H16.267C16.267 21.9088 16.8398 22.4695 17.53 22.4695V22.2542ZM22.7366 22.2542H17.53V22.4695H22.7366V22.2542ZM23.7842 21.2106C23.7842 21.7881 23.3095 22.2542 22.7366 22.2542V22.4695C23.4267 22.4695 23.9995 21.9088 23.9995 21.2106H23.7842ZM22.7366 20.1514C23.3076 20.1514 23.7842 20.6311 23.7842 21.2106H23.9995C23.9995 20.5142 23.4286 19.936 22.7366 19.936V20.1514ZM25.9098 30.0328H17.53V30.2481H25.9098V30.0328ZM26.9574 28.9736C26.9574 29.553 26.4809 30.0328 25.9098 30.0328V30.2481C26.6018 30.2481 27.1728 29.6699 27.1728 28.9736H26.9574ZM25.9098 27.93C26.4827 27.93 26.9574 28.3961 26.9574 28.9736H27.1728C27.1728 28.2754 26.6 27.7146 25.9098 27.7146V27.93ZM17.53 27.93H25.9098V27.7146H17.53V27.93ZM16.4824 28.9736C16.4824 28.3961 16.957 27.93 17.53 27.93V27.7146C16.8398 27.7146 16.267 28.2754 16.267 28.9736H16.4824ZM17.53 30.0328C16.9589 30.0328 16.4824 29.553 16.4824 28.9736H16.267C16.267 29.6699 16.8379 30.2481 17.53 30.2481V30.0328Z" fill="url(#paint3_linear_1012_47350)" mask="url(#path-5-inside-1_1012_47350)"/>
<g filter="url(#filter2_bd_1012_47350)">
<mask id="path-7-inside-2_1012_47350" fill="white">
<path d="M29.4402 17.7532C30.5139 17.7641 32.0065 17.7688 33.2727 17.7641C33.9212 17.7626 34.2509 16.98 33.8011 16.5086C32.1744 14.8003 29.2646 11.7431 27.5994 9.99441C27.1389 9.51056 26.3332 9.8435 26.3332 10.5141V14.6152C26.3332 16.3359 27.7365 17.7532 29.4402 17.7532Z"/>
</mask>
<path d="M29.4402 17.7532C30.5139 17.7641 32.0065 17.7688 33.2727 17.7641C33.9212 17.7626 34.2509 16.98 33.8011 16.5086C32.1744 14.8003 29.2646 11.7431 27.5994 9.99441C27.1389 9.51056 26.3332 9.8435 26.3332 10.5141V14.6152C26.3332 16.3359 27.7365 17.7532 29.4402 17.7532Z" fill="url(#paint4_linear_1012_47350)"/>
<path d="M33.2727 17.7641L33.2725 17.6564L33.2723 17.6564L33.2727 17.7641ZM33.8011 16.5086L33.7231 16.5828L33.7232 16.5829L33.8011 16.5086ZM27.5994 9.99441L27.5214 10.0687L27.5214 10.0687L27.5994 9.99441ZM29.4391 17.8609C30.5133 17.8718 32.0065 17.8765 33.2731 17.8718L33.2723 17.6564C32.0066 17.6611 30.5144 17.6564 29.4413 17.6455L29.4391 17.8609ZM33.273 17.8718C34.0178 17.87 34.3929 16.9728 33.879 16.4342L33.7232 16.5829C34.1089 16.9871 33.8246 17.6551 33.2725 17.6564L33.273 17.8718ZM33.8791 16.4343C32.2516 14.7252 29.3434 11.6697 27.6774 9.92015L27.5214 10.0687C29.1858 11.8166 32.0972 14.8754 33.7231 16.5828L33.8791 16.4343ZM27.6774 9.92016C27.1472 9.36309 26.2255 9.75015 26.2255 10.5141H26.4409C26.4409 9.93685 27.1305 9.65803 27.5214 10.0687L27.6774 9.92016ZM26.2255 10.5141V14.6152H26.4409V10.5141H26.2255ZM26.2255 14.6152C26.2255 16.3943 27.676 17.8609 29.4402 17.8609V17.6455C27.797 17.6455 26.4409 16.2774 26.4409 14.6152H26.2255Z" fill="url(#paint5_linear_1012_47350)" mask="url(#path-7-inside-2_1012_47350)"/>
</g>
<defs>
<filter id="filter0_f_1012_47350" x="3.19219" y="1.33395" width="25.1539" height="27.4615" filterUnits="userSpaceOnUse" color-interpolation-filters="sRGB">
<feFlood flood-opacity="0" result="BackgroundImageFix"/>
<feBlend mode="normal" in="SourceGraphic" in2="BackgroundImageFix" result="shape"/>
<feGaussianBlur stdDeviation="2.82692" result="effect1_foregroundBlur_1012_47350"/>
</filter>
<filter id="filter1_b_1012_47350" x="2.89797" y="1.10658" width="39.9102" height="44.5777" filterUnits="userSpaceOnUse" color-interpolation-filters="sRGB">
<feFlood flood-opacity="0" result="BackgroundImageFix"/>
<feGaussianBlur in="BackgroundImage" stdDeviation="3.23077"/>
<feComposite in2="SourceAlpha" operator="in" result="effect1_backgroundBlur_1012_47350"/>
<feBlend mode="normal" in="SourceGraphic" in2="effect1_backgroundBlur_1012_47350" result="shape"/>
</filter>
<filter id="filter2_bd_1012_47350" x="22.2948" y="5.72655" width="15.7522" height="16.0778" filterUnits="userSpaceOnUse" color-interpolation-filters="sRGB">
<feFlood flood-opacity="0" result="BackgroundImageFix"/>
<feGaussianBlur in="BackgroundImage" stdDeviation="2.01923"/>
<feComposite in2="SourceAlpha" operator="in" result="effect1_backgroundBlur_1012_47350"/>
<feColorMatrix in="SourceAlpha" type="matrix" values="0 0 0 0 0 0 0 0 0 0 0 0 0 0 0 0 0 0 127 0" result="hardAlpha"/>
<feOffset dx="1.34615" dy="1.34615"/>
<feGaussianBlur stdDeviation="1.34615"/>
<feColorMatrix type="matrix" values="0 0 0 0 0.577356 0 0 0 0 0.359375 0 0 0 0 0.9375 0 0 0 0.25 0"/>
<feBlend mode="normal" in2="effect1_backgroundBlur_1012_47350" result="effect2_dropShadow_1012_47350"/>
<feBlend mode="normal" in="SourceGraphic" in2="effect2_dropShadow_1012_47350" result="shape"/>
</filter>
<linearGradient id="paint0_linear_1012_47350" x1="17.0703" y1="0.769287" x2="22.6386" y2="32.8857" gradientUnits="userSpaceOnUse">
<stop stop-color="#B098EB"/>
<stop offset="1" stop-color="#4E2AA7"/>
</linearGradient>
<linearGradient id="paint1_linear_1012_47350" x1="13.8389" y1="11.4625" x2="34.1168" y2="32.8099" gradientUnits="userSpaceOnUse">
<stop stop-color="white" stop-opacity="0.25"/>
<stop offset="1" stop-color="white" stop-opacity="0"/>
</linearGradient>
<linearGradient id="paint2_linear_1012_47350" x1="26.3072" y1="21.867" x2="14.4006" y2="22.278" gradientUnits="userSpaceOnUse">
<stop stop-color="white"/>
<stop offset="1" stop-color="white" stop-opacity="0.2"/>
</linearGradient>
<linearGradient id="paint3_linear_1012_47350" x1="18.0764" y1="21.22" x2="24.4302" y2="29.5519" gradientUnits="userSpaceOnUse">
<stop stop-color="white" stop-opacity="0.25"/>
<stop offset="1" stop-color="white" stop-opacity="0"/>
</linearGradient>
<linearGradient id="paint4_linear_1012_47350" x1="33.4644" y1="11.2098" x2="24.9141" y2="11.4773" gradientUnits="userSpaceOnUse">
<stop stop-color="white"/>
<stop offset="1" stop-color="white" stop-opacity="0.2"/>
</linearGradient>
<linearGradient id="paint5_linear_1012_47350" x1="27.555" y1="10.6971" x2="32.6993" y2="16.8092" gradientUnits="userSpaceOnUse">
<stop stop-color="white" stop-opacity="0.25"/>
<stop offset="1" stop-color="white" stop-opacity="0"/>
</linearGradient>
</defs>
</svg>