<svg xmlns="http://www.w3.org/2000/svg" fill="none" viewBox="0 0 224 182">
  <path fill="#E0F4EE" d="M43.58 180.248h9.152l-.644-8.104-2.614-.234 1.01 6.698c-1.716-.628-3.33-1.32-4.975-.942-1.92.44-1.735 2.036-1.928 2.582Zm13.49 0h9.105c.162-.546.052-1.828-1.677-2.582-1.73-.754-4.253.314-5.3.942l.564-6.698-2.468.234c-.095 3.955-.224 8.104-.224 8.104Zm19.605-70.287c-3.264-3.67-12.222-14.221-15.314-18.037-.563-.694-1.9-1.099-4.39-1.736 0 0-2.254 5.783-4.63 5.283-2.165-.456-2.248-5.81-2.248-5.81-2.63.262-4.667.918-5.098 1.77-2.342 4.63-2.343 4.632-2.893 5.57-.36.614-.954 1.63-2.592 4.604-3.31 6.01-10.808 13.054-16.152 17.493l.682.636.681.637a368.8 368.8 0 0 0 8.776-7.604c3.824-3.421 9.175-10.399 10.215-12.148-.269.963-.656 3.442-1.225 5.673-.943 3.7-2.706 9.914-3.493 13.442-2.48 11.111-4.075 18.149-5.497 23.99 1.378-.912 4.372-1.608 6.013-1.074 2.051.669 6.29-1.782 8.799-2.005 2.508-.223 4.135 1.114 7.414.557s5.584-1.448 9.427 0 4.177.557 7.188 0c2.408-.445 4.132.31 4.693.743-3.914-11.218-9.674-28.736-11.422-35.457l-.242-.931c-.833-3.207-1.25-4.81-1.714-6.4 3.266 4.378 10.441 13.591 13.022 15.416 3.226 2.281 6.46 2.281 9.505.76 2.435-1.216 6.342-3.485 7.991-4.467l-.522-1.365-.523-1.366c-1.602 1.285-3.269 2.522-4.752 3.293-3.968 2.062-7.619 3.121-11.699-1.467Z"/>
  <path fill="#E0F4EE" d="M39.51 142.65c-1.64-.534-4.635.162-6.013 1.074-.124.51-.28 1.186-.45 1.923l-.07.306-.087.374c.639-.383 2.875-1.937 4.945-1.476 2.652.592 3.642-.054 7.273-1.127 2.815-.832 3.723-1.155 6.054-.577 2.33.577 2.017 1.461 6.227.259 4.21-1.201 5.895-.817 8.234 0 2.057.719 3.344 1.388 6.175.318 2.667-1.008 4.895-.193 5.857 0a618.85 618.85 0 0 1-.624-1.779c-.56-.433-2.285-1.188-4.693-.743-3.011.557-3.345 1.448-7.188 0-3.843-1.448-6.149-.557-9.427 0-3.279.557-4.907-.78-7.414-.557-2.508.223-6.748 2.674-8.799 2.005Z"/>
  <path fill="#E0F4EE" d="M32.89 146.327c-.232.998-.477 2.044-.696 2.896 2.27-2.42 3.59-2.176 5.062-1.903.836.154 1.72.318 2.856.009 2.102-.571 3.101-.962 3.885-1.27.33-.129.889-.283 1.512-.429 0 0 3.263-.969 5.038-.113 1.725.831 1.898.828 2.859.811l.087-.001c1.03-.018 2.082-.414 3.132-.81a.629.629 0 0 0 .24-.157c.06-.061.106-.11.524-.217 1.18-.304 3.55-.684 4.647-.292 1.742.623 2.674.779 2.922.779 1.206.365 2.304.697 4.035.697 1.644 0 2.769-.339 3.764-.639 1.682-.507 2.995-.902 5.825.639-.289-.803-.6-1.675-.927-2.603-.962-.193-3.19-1.008-5.856 0-2.832 1.07-4.119.401-6.176-.318-2.34-.817-4.024-1.201-8.234 0-4.21 1.202-3.896.318-6.227-.259-2.33-.578-3.239-.255-6.053.577-3.633 1.073-4.622 1.719-7.274 1.127-2.07-.461-4.306 1.093-4.945 1.476Z"/>
  <path stroke="#000" stroke-linecap="round" stroke-linejoin="round" d="M53.493 146.327c1.03-.018 2.082-.414 3.132-.81a.629.629 0 0 0 .24-.157c.06-.061.106-.11.524-.217m-3.896 1.184-.087.001m.087-.001-.087.001m12.203-39.84c1.748 6.721 7.508 24.239 11.422 35.457M65.61 106.488l-.242-.931m.242.931-.242-.931m-31.87 38.167c1.378-.912 4.372-1.608 6.013-1.074 2.051.669 6.29-1.782 8.799-2.005 2.508-.223 4.135 1.114 7.414.557s5.584-1.448 9.427 0 4.177.557 7.188 0c2.408-.445 4.132.31 4.693.743m-43.534 1.779c-.124.51-.28 1.186-.45 1.923m.45-1.923c1.422-5.841 3.016-12.879 5.497-23.99.787-3.528 2.55-9.742 3.493-13.442.569-2.231.956-4.71 1.225-5.673-1.04 1.749-6.39 8.727-10.215 12.148a368.8 368.8 0 0 1-8.776 7.604l-.681-.637m52.991 22.211.624 1.779m-44.765 2.603c-.232.998-.477 2.044-.696 2.896 2.27-2.42 3.59-2.176 5.062-1.903.836.154 1.72.318 2.856.009 2.102-.571 3.101-.962 3.885-1.27.33-.129.889-.283 1.512-.429m-12.62.697c.64-.383 2.876-1.937 4.946-1.476 2.652.592 3.642-.054 7.273-1.127 2.815-.832 3.723-1.155 6.054-.577 2.33.577 2.017 1.461 6.227.259 4.21-1.201 5.895-.817 8.234 0 2.057.719 3.344 1.388 6.175.318 2.667-1.008 4.895-.193 5.857 0m-44.765 2.603.086-.374m-.086.374.086-.374m44.68-2.229c.327.928.637 1.8.926 2.603-2.83-1.541-4.143-1.146-5.825-.639-.995.3-2.12.639-3.764.639-1.731 0-2.829-.332-4.035-.697-.248 0-1.18-.156-2.922-.779m-11.943-55.19c-2.63.262-4.667.918-5.098 1.77-2.342 4.63-2.343 4.632-2.893 5.57-.36.614-.954 1.63-2.592 4.604-3.31 6.01-10.808 13.054-16.152 17.493m26.735-29.436c1.177-.117 2.572-.126 4.226.052.995.107 1.877.276 2.652.474m-6.878-.526s.083 5.353 2.248 5.809c2.376.5 4.63-5.283 4.63-5.283m0 0c2.49.637 3.827 1.042 4.39 1.736 3.092 3.816 12.05 14.367 15.314 18.037 4.08 4.588 7.731 3.529 11.699 1.467 1.483-.771 3.15-2.008 4.752-3.293m-42.579 37.382c-1.775-.856-5.038.113-5.038.113m5.038-.113 1.158 21.8.383 4.827m-1.54-26.627c1.724.831 1.897.828 2.858.811m-20.36-.681c-.022.101-.046.203-.07.306m.07-.306-.07.306m60.15-37.818.523 1.366m-.523-1.366c.772-.619 1.53-1.249 2.243-1.843.975-.811 1.87-1.556 2.613-2.114.189-.369.66-.782 1.041.51.381 1.293-3.424 3.747-5.374 4.813m0 0 .522 1.365c-1.649.982-5.556 3.251-7.991 4.467-3.045 1.521-6.28 1.521-9.505-.76-2.58-1.825-9.756-11.038-13.021-15.416.463 1.59.88 3.193 1.713 6.4m-42.009 13.541a93.412 93.412 0 0 1-3.518 2.794c-.434.76-.941 2.281.505 2.281s3.066-2.959 3.695-4.439m-.682-.636.682.636m33.03 60.514h9.105c.162-.546.052-1.828-1.677-2.582-1.73-.754-4.253.314-5.3.942l.564-6.698m-2.692 8.338s.129-4.149.224-8.104m-.224 8.104.224-8.104M45.51 145.63l3.965 26.28m12.562-27.059c-1.097-.392-3.466-.012-4.647.292m4.647-.292-2.274 27.059m-2.373-26.767s.111 12.585 0 22.174a416.159 416.159 0 0 1-.095 4.827m-5.206 0 .644 8.104H43.58c.193-.546.009-2.142 1.928-2.582 1.645-.378 3.26.314 4.975.942l-1.01-6.698m2.614.234-2.614-.234m7.82.234 2.468-.234"/>
  <path fill="url(#a)" d="M28.761 142.332c-1.836 1.261-7.582 1.777-14.757 0-7.369-1.825-10.27-3.658-10.974-4.537a71.836 71.836 0 0 0-.614 3.44c1.693 1.302 6.086 3.521 10.814 4.596 6.039 1.372 11.529 1.424 14.55 0 .32-1.029.668-2.215.981-3.499Z"/>
  <path stroke="#000" stroke-linecap="round" stroke-linejoin="round" d="M19.841 121.892c-11.112-1.043-14.96 7.071-16.766 15.686m0 0c2.671-.894 5.343-1.4 12.994 0 8.285 1.517 10.53 3.128 12.692 4.754m-25.686-4.754c-.016.072-.03.144-.045.217m25.731 4.537c-1.836 1.261-7.582 1.777-14.757 0-7.369-1.825-10.27-3.658-10.974-4.537m25.731 4.537a58.165 58.165 0 0 1-.981 3.499m.981-3.499c1.63-6.671 2.346-15.988-6.347-19.609M3.03 137.795a71.836 71.836 0 0 0-.614 3.44m0 0c-.082.528-.16 1.055-.233 1.576-.893 6.335-2.717 15.233 8.473 17.659 12.61 2.734 14.72-7.072 16.304-12.088.206-.654.5-1.524.82-2.551m-25.364-4.596c1.693 1.302 6.086 3.521 10.814 4.596 6.039 1.372 11.529 1.424 14.55 0"/>
  <path fill="url(#b)" d="m41.06 83.048-.388-4.693a.5.5 0 0 1 .71-.496l10.941 5.05s.68-.405 1.433-.392c.843.014 1.599.532 1.599.532l11.657-4.49a.5.5 0 0 1 .658.613l-1.516 4.916a.499.499 0 0 0-.008.268l1.209 4.88a.5.5 0 0 1-.669.585L55.37 85.39s-.846.6-1.592.569c-.745-.032-1.725-.547-1.725-.547L40.1 88.913a.5.5 0 0 1-.618-.626l1.558-5.052a.5.5 0 0 0 .02-.188Z"/>
  <path stroke="#000" stroke-linecap="round" stroke-linejoin="round" d="m52.323 82.909-10.942-5.05a.5.5 0 0 0-.709.496l.388 4.693a.5.5 0 0 1-.02.188l-1.558 5.052a.5.5 0 0 0 .618.626l11.953-3.502m.27-2.503-.27 2.502m.27-2.502s.68-.405 1.433-.392c.843.014 1.599.532 1.599.532m-3.302 2.362s.98.516 1.725.548c.746.032 1.592-.57 1.592-.57m0 0 11.316 4.432a.5.5 0 0 0 .669-.585l-1.209-4.88a.499.499 0 0 1 .008-.268l1.516-4.916a.5.5 0 0 0-.658-.613l-11.657 4.49m.015 2.34-.015-2.34"/>
  <path fill="url(#c)" fill-rule="evenodd" d="M102.246 66.65a377.97 377.97 0 0 0-4.493-.713v4.532c0 2.093.276 4.745 2.498 5.28 1.969 0 2.776-.534 3.554-3.06a47.98 47.98 0 0 0 1.031-3.834c.115-.487.242-1.031.413-1.722a390.253 390.253 0 0 1-3.003-.483Z" clip-rule="evenodd"/>
  <path stroke="#000" stroke-linecap="round" stroke-linejoin="round" d="M89.358 177.846s3.94-35.682 7.604-70.364m3.289-31.733c-2.222-.535-2.499-3.187-2.499-5.28m2.499 5.28c1.969 0 2.776-.534 3.554-3.06a47.98 47.98 0 0 0 1.031-3.834c.115-.487.242-1.031.413-1.722m-4.998 8.616c-.886 8.78-1.908 18.627-2.964 28.65m.465-33.93v-4.532m0 4.532v-4.532m0 0c-3.495-1.84-2.71-10.36-2.454-17.008.143-3.727-1.154-8.405-1.041-8.723l4.556.542m-1.06 25.189c2.202.337 3.341.524 4.493.713.85.14 1.707.28 3.003.483m0 0c4.081-.895 5.573-10.381 6.134-14.216.763-5.22 2.113-5.806 3.798-10.224l-5.09-.567m-11.278-1.378 5.819.675m-5.82-.675s.656 4.973.595 8.181c-.05 2.673-.594 6.803-.594 6.803m5.819-14.31-1.761 14.955m1.761-14.955 5.459.704m0 0s-1.513 4.711-2.054 7.683c-.514 2.82-1.116 7.038-1.116 7.038"/>
  <path fill="url(#d)" d="M77.506 57.828c-.31 2.901-1.351 5.62-3.036 8.605 1.012.504 3.51.75 5.402-2.298.16-.257.282-.67.374-1.069.17-.727.243-1.404.276-.995.024-2.052-1.816-3.61-3.016-4.243Z"/>
  <path fill="url(#e)" d="M37.71 66.433c-1.28-2.518-2.353-6.019-2.513-10.223-1.092.859-2.06 2.046-2.744 4.033a5.57 5.57 0 0 0-.302 2.07c.024.481.12.96.302 1.408 1.103 2.712 3.808 3.265 5.256 2.712Z"/>
  <path stroke="#000" stroke-linecap="round" stroke-linejoin="round" d="M40.7 70.365c-.904-.646-2.008-1.999-2.99-3.932m36.76 0c-2.394 4.241-6.572 6.459-9.21 7.833m9.21-7.833c1.685-2.985 2.726-5.704 3.036-8.605m-3.036 8.605c1.012.504 3.51.75 5.402-2.298m-2.366-6.307c.359-3.358-.261-6.96-1.996-11.501a16.594 16.594 0 0 0-2.077-3.83c-3.074-4.237-7.965-6.901-12.898-7.956a22.612 22.612 0 0 0-5.656-.497c-7.805.334-17.566 5.684-19.299 16.22a29.7 29.7 0 0 0-.383 5.946m42.309 1.618c1.2.633 3.04 2.191 3.016 4.243m-.65 2.064c.217.323 2.88 2.088 2.417 7.42-.684 7.888-5.165 5.885-5.872 14.249-.687 8.112 7.919 13.495 12.517 14.814-.272.195-1.892-.911-3.847-7.668-2.067-7.146 0-6.204 1.515-16.9 1.18-8.325-3.276-12.736-6.08-13.98m-.65 2.065c.16-.257.282-.67.374-1.069.17-.727.243-1.404.276-.995m-45.325-5.86c.16 4.203 1.233 7.704 2.512 10.222M35.197 56.21c-1.092.859-2.06 2.046-2.744 4.033m0 3.478c1.103 2.712 3.808 3.265 5.256 2.712m-5.256-2.712c-1.591 1.657-3.286 2.594-3.937 8.654-.738 6.87 2.684 6.091 2.56 16.109-.1 8.014-6.625 11.392-9.72 12.134.124-.33 2.347-1.87 3.59-7.668 1.79-8.342-3.466-6.73-3.59-17.737-.099-8.805 7.26-13.901 11.097-14.97m0 3.478a4.318 4.318 0 0 1-.302-1.409 5.57 5.57 0 0 1 .302-2.069"/>
  <path stroke="#000" stroke-linecap="round" stroke-linejoin="round" d="M71.296 65.683C68.43 74.765 58.724 79.81 49.617 76.951c-9.106-2.858-14.165-12.536-11.3-21.618.803-2.541 2.344-4.794 4.054-6.619 2.044-2.18 4.517-3.96 8.005-3.96 4.43 0 10.648-1.94 10.648-1.94s-.466 4.658 4.974 6.754c3.25 1.253 4.264 2.497 5.298 5.76a17.114 17.114 0 0 1 0 10.355Z"/>
  <ellipse fill="#000" rx="1.796" ry="1.792" transform="rotate(17.424 -155.642 193.305) skewX(-.091)"/>
  <ellipse fill="#000" rx="1.796" ry="1.792" transform="rotate(17.424 -154.29 223.52) skewX(-.091)"/>
  <path stroke="#000" stroke-linecap="round" stroke-linejoin="round" d="M46.873 61.775c.603 2.067 2.297 6.27 7.22 6.96 5.198.73 7.345-2.389 9.28-5.538"/>
  <path fill="url(#f)" d="m133.169 48.834-.442-4.394a.5.5 0 0 1 .7-.508l10.397 4.583s.636-.395 1.349-.396c.798 0 1.522.478 1.522.478l10.902-4.436a.5.5 0 0 1 .669.602l-1.333 4.628a.504.504 0 0 0-.003.267l1.212 4.551a.5.5 0 0 1-.658.598l-10.735-3.992s-.79.585-1.496.567c-.706-.017-1.642-.49-1.642-.49l-11.202 3.51a.5.5 0 0 1-.63-.615l1.373-4.764a.48.48 0 0 0 .017-.189Z"/>
  <path stroke="#000" stroke-linecap="round" stroke-linejoin="round" d="m143.824 48.515-10.397-4.583a.5.5 0 0 0-.7.508l.442 4.394a.48.48 0 0 1-.017.188l-1.373 4.765a.5.5 0 0 0 .63.616l11.202-3.51m.213-2.378-.213 2.378m.213-2.378s.636-.395 1.349-.396c.798 0 1.522.478 1.522.478m-3.084 2.296s.936.472 1.642.49c.706.017 1.496-.568 1.496-.568m0 0 10.735 3.992a.5.5 0 0 0 .658-.598l-1.212-4.551a.504.504 0 0 1 .003-.267l1.333-4.628a.5.5 0 0 0-.669-.602l-10.902 4.436m.054 2.218-.054-2.218M162.176 31c-1.973 8.91-10.8 14.533-19.715 12.561-8.916-1.972-14.543-10.793-12.57-19.702.736-3.326 3.543-8.913 7.175-8.596 5.395.472 7.339-4.28 7.339-4.28s2.496 2.552 4.902 1.662c2.701-1 4.551 5.185 8.16 6.546 3.695 1.394 3.845.758 4.713 4.668a16.442 16.442 0 0 1-.004 7.14Z"/>
  <ellipse fill="#000" rx="1.699" ry="1.698" transform="rotate(12.472 -34.407 660.332) skewX(-.016)"/>
  <ellipse fill="#000" rx="1.699" ry="1.698" transform="rotate(12.472 -30.886 700.066) skewX(-.016)"/>
  <path stroke="#000" stroke-linecap="round" stroke-linejoin="round" d="M138.662 29.278c.739 1.903 2.682 5.733 7.378 5.98 4.96.262 6.726-2.86 8.29-5.993"/>
  <path fill="#E0F4EE" d="M146.354 113.107s5.243 22.918 5.906 29.369c.543 5.285 2.361 23.111 2.881 26.915l8.441-.92c.428-13.351.75-38.875-.959-46.28-2.261-9.797-4.417-17.348-7.794-22.142-.92-.407-3.578-1.363-6.847-1.93-3.27-.567-9.173-.027-11.715.314-2.497 6.458-5.014 12.574-6.538 23.497-1.517 10.872-.203 34.843.794 47.529l8.714.565c-.229-9.209.432-24.05 1.174-29.368 1.012-7.249 1.387-13.959 2.985-18.726l2.958-8.823Zm-22.067 67.655h12.867v-4.269l-2.517-.108.372 2.465s-3.179-.83-5.863-1.146c-3.701-.436-4.875 1.809-4.859 3.058Zm33.435 0h12.804c0-1.483-.69-2.972-3.788-3.058-2.628-.072-6.806 1.146-6.806 1.146l.303-2.465-2.513.108v4.269Z"/>
  <path fill="#E0F4EE" d="M137.053 75.648c1.125 3.547 2.856 5.98 1.84 12.565-.296 1.916-.549 4.775-1.84 8.165 1.878-.348 6.366-.963 9.301-.64 2.934.323 5.648 1.229 6.991 1.78-2.299-5.44-2.942-9.255-1.798-18.323.411-3.261 2.013-9.555 2.013-9.555s1.379 13.156 4.78 19.7c3.66 7.038 6.682 10.033 10.63 13.605.337.305.68.614 1.023.918l1.151-1.528c-2.902-2.87-6.461-6.703-8.324-9.347-3.378-4.794-5.131-12.466-5.735-17.34-.255-2.064-.661-7.542-1.01-11.374-.349-3.831-1.814-5.16-1.814-5.16-1.116-1.35-2.615-2.47-4.328-3.236-.176.917-1.321 2.751-4.495 2.751-3.174 0-5.009-1.922-5.529-2.882-1.449.627-3.014 1.45-4.377 2.882-1.362 1.433-2.491 2.776-2.989 6.233-.498 3.457-.971 8.675-1.591 13.42-1.064 8.15-3.559 20.972-3.559 20.972s-1.007 4.49-1.332 6.726l1.768.495c.191-.904 1.043-4.273 1.191-4.931 1.424-6.312 2.292-9.44 3.523-15.525 1.335-6.596 2.441-13.708 2.561-16.38.477.8.825 2.462 1.949 6.009Z"/>
  <path stroke="#000" stroke-linecap="round" stroke-linejoin="round" d="M146.354 113.107s5.243 22.918 5.906 29.369c.543 5.285 2.361 23.111 2.881 26.915m-8.787-56.284-2.958 8.823m2.958-8.823-2.958 8.823m11.433-21.881c3.377 4.794 5.533 12.345 7.794 22.142 1.709 7.405 1.387 32.929.959 46.28m-8.753-68.422c-.92-.407-3.578-1.363-6.847-1.93-3.27-.567-9.173-.027-11.715.314m18.562 1.616c-.288-.408-.883-1.465-1.269-2.15l-.001-.002-.214-.38m-9.949 24.413c-1.598 4.767-1.973 11.477-2.985 18.726-.742 5.318-1.403 20.159-1.174 29.368m-2.97-71.59c-2.497 6.457-5.014 12.573-6.538 23.496-1.517 10.872-.203 34.843.794 47.529m5.744-71.026c.181-.469.605-1.58.786-2.055m-6.53 73.081c.067.85.132 1.649.195 2.39l3.263.189m-3.458-2.579 8.714.565m0 0c.021.835.042 1.614.063 2.323l-2.146-.124m17.987-2.832c.115.839.216 1.559.297 2.124l2.284-.234m-2.581-1.89 8.441-.92m0 0c-.025.779-.05 1.52-.075 2.216l-2.538.268m-21.06-115.208c-1.449.627-3.014 1.45-4.377 2.882-1.362 1.433-2.491 2.776-2.989 6.233-.498 3.457-.971 8.675-1.591 13.42-1.064 8.15-3.559 20.972-3.559 20.972s-1.007 4.49-1.332 6.726m13.848-50.233c.52.96 2.355 2.882 5.529 2.882s4.319-1.834 4.495-2.751m-10.024-.131c3.39-1.469 7.033-1.208 10.024.13m0 0c1.713.767 3.212 1.887 4.328 3.237 0 0 1.465 1.329 1.814 5.16.349 3.832.755 9.31 1.01 11.374.604 4.874 2.357 12.546 5.735 17.34 1.863 2.644 5.422 6.476 8.324 9.347m-34.091-5.957c1.291-3.39 1.544-6.25 1.84-8.165 1.016-6.584-.715-9.018-1.84-12.565-1.124-3.547-1.472-5.209-1.949-6.008-.12 2.671-1.226 9.783-2.561 16.38-1.231 6.084-2.099 9.212-3.523 15.524-.148.658-1 4.027-1.191 4.931m9.224-10.097c1.878-.348 6.366-.963 9.301-.64 2.934.323 5.648 1.229 6.991 1.78m0 0c-2.299-5.44-2.942-9.255-1.798-18.323.411-3.261 2.013-9.555 2.013-9.555s1.379 13.156 4.78 19.7c3.66 7.038 6.682 10.033 10.63 13.605.337.305.68.614 1.023.918m-32.839 68.36-2.145-.125-1.028-.06m3.173.185v4.27m-3.173-4.455.656 4.347m23.085-5.104 1.174-.12 2.073-.206m-3.247.326v5.212m3.247-5.538-.734 5.43m-25.598 0 .372 2.465s-3.179-.83-5.863-1.146c-3.701-.436-4.875 1.809-4.859 3.058h12.867v-4.269m-2.517-.108 2.517.108m20.568 0v4.269h12.804c0-1.483-.69-2.972-3.788-3.058-2.628-.072-6.806 1.146-6.806 1.146l.303-2.465m-2.513.108 2.513-.108m9.758-72.522c2.025 1.798 4.013 3.414 4.457 2.959.414-.426.172-1.104 0-1.39-.826-.706-1.999-1.804-3.306-3.097m-1.151 1.528 1.151-1.528m-45.083 3.645c-.407 2.804-.81 6.026-.557 6.313.828.939 1.68-2.756 2.325-5.818m-1.768-.495 1.768.495"/>
  <path fill="#E0F4EE" fill-rule="evenodd" d="M200.867 149.952c-.849 1.091-2.609 3.904-2.851 6.436-.207 2.174.429 8.665.919 12.912l-8.559.06c-.366-3.126-.753-8.247-1.259-11.486-1.028-6.567.25-13.206 2.287-17.803 1.063-2.401.877-8.14.877-8.14s4.918-4.494 5.076-8.822c.157-4.329-.308-5.929-.56-6.188l.552.019 1.148.038s.307 2.037.404 3.336c.082 1.105.133 2.795.133 2.795l6.858.507s-.084-1.659-.133-2.842a282.113 282.113 0 0 1-.123-3.389c.521.05 1.032.106 1.531.169.048 1.565.182 3.938.428 6.163.279 2.529.571 4.368 1.181 5.105 1.146 1.387 1.837 1.781 3.363 2.586 0 3.798-.407 7.964.924 12.461 1.265 4.273 2.294 17.7 2.652 24.993l-9.235.438-2.031-12.139c-.495-2.857-2.627-6.053-3.582-7.209Zm-1.833-23.556 6.602.376s.176 1.929.655 2.785c.48.856 1.304 2.311 1.304 2.311l.256 6.286-11.054-.435v-6.311s.993-1.11 1.411-2.088c.466-1.091.826-2.924.826-2.924Z" clip-rule="evenodd"/>
  <path fill="#E0F4EE" d="M189.117 180.819h7.68v-4.467h-1.984l.385 2.805c-.659-.369-2.21-1.044-3.794-.791-1.585.253-2.185 1.741-2.287 2.453Zm20.228 0h8.697c-.102-1.082-.804-2.453-2.624-2.453-1.646 0-3.461.527-4.331.791l.375-2.805h-2.117v4.467Z"/>
  <path stroke="#000" stroke-linecap="round" stroke-linejoin="round" d="M204.449 157.161c-.495-2.857-2.627-6.053-3.582-7.209-.849 1.091-2.609 3.904-2.851 6.436-.207 2.174.429 8.665.919 12.912m5.514-12.139 2.031 12.139m-2.031-12.139c.416 2.406 1.347 8.186 2.031 12.139m.342 1.98-.342-1.98m.342 1.98-.342-1.98m.342 1.98 2.523-.118m2.794-39.754c0 3.798-.407 7.964.924 12.461 1.265 4.273 2.294 17.7 2.652 24.993m-3.576-37.454c-1.526-.805-2.217-1.199-3.363-2.586-.61-.737-.902-2.576-1.181-5.105a83.278 83.278 0 0 1-.428-6.163m4.972 13.854 4.705 3.167s.168-.138.832-1.261m-33.606-14.985-2.037 4.597s8.19 3.979 9.371 5.896c1.18 1.917.877 3.109.877 3.109m-8.211-13.602c-2.966-2.412-7.748-6.175-9.07-8.757-.607-1.187-1.089-2.16-1.461-3.087m10.531 11.844 1.018-2.298m7.193 15.9s.186 5.739-.877 8.14c-2.037 4.597-3.315 11.236-2.287 17.803.506 3.239.893 8.36 1.259 11.486m1.905-37.429s4.918-4.494 5.076-8.822c.157-4.329-.308-5.929-.56-6.188m0 0a247.72 247.72 0 0 1-1.083-.037c-4.332-.157-9.607-3.151-9.607-3.151l-1.019 2.298m11.709.89.552.019 1.148.038m8.67.576c2.095.264 3.632.28 4.972.873 2.943 1.302 9.54 7.969 9.54 7.969s-1.777 3.068-2.337 4.015m-12.175-12.857c-2.726-.345-5.837-.478-8.67-.576m8.67.576a51.568 51.568 0 0 0-1.531-.169l.018.524a282.113 282.113 0 0 0 .238 5.707l-6.858-.507s-.051-1.69-.133-2.795c-.097-1.299-.404-3.336-.404-3.336m-8.121 52.382c.083.709.152 1.332.203 1.829h3.517m-3.72-1.829 8.559-.06m0 0c.08.701.157 1.34.225 1.889h-2.363m9.683-1.889 9.235-.438m0 0c.035.721.068 1.391.096 1.997l-5.618.263-.848.04m-12.548.027h-2.701m2.701 0v5.163m-2.701-5.163.717 5.163m14.532-5.19v5.19m2.794-5.072-.677 5.072m-16.649 0 .385 2.805c-.659-.369-2.21-1.044-3.794-.791-1.585.253-2.185 1.741-2.287 2.453h7.68v-4.467m-1.984 0h1.984m12.548 0v4.467h8.697c-.102-1.082-.804-2.453-2.624-2.453-1.646 0-3.461.527-4.331.791l.375-2.805m-2.117 0h2.117m-26.374-60.321c-2.849-2.041-8.013-5.777-9.176-8.126-.451-.922-1.484-2.851-2.015-3.189m45.445 25.695a100.36 100.36 0 0 1-1.666 2.903m1.666-2.903c1.434 4.098 1.668 7.809 1.841 11.739.172 3.929.013 8.555-.938 8.555s-.318-4.939-.903-9.946c-.348-2.975-.905-6.111-1.666-7.445m-18.642-6.918 6.602.376s.176 1.929.655 2.785c.48.856 1.304 2.311 1.304 2.311l.256 6.286-11.054-.435v-6.311s.993-1.11 1.411-2.088c.466-1.091.826-2.924.826-2.924Zm15.479-28.466a12.273 12.273 0 0 1 .704 7.383c-1.423 6.66-7.979 10.907-14.643 9.486-6.665-1.422-10.914-7.973-9.492-14.633a12.27 12.27 0 0 1 3.706-6.496"/>
  <ellipse fill="#000" rx="1.281" ry="1.28" transform="rotate(12.04 -371.495 997.653) skewX(-.016)"/>
  <ellipse fill="#000" rx="1.281" ry="1.28" transform="rotate(12.04 -368.626 1028.66) skewX(-.016)"/>
  <path stroke="#000" stroke-linecap="round" stroke-linejoin="round" d="M197.604 104.174c.568 1.43 2.054 4.306 5.596 4.466 3.74.169 5.054-2.195 6.215-4.565"/>
  <path fill="url(#g)" fill-rule="evenodd" d="M197.994 89.237c.24.924.463 2.176.463 2.176s4.113-1.992 6.456-2.847c0 0-1.777-.924-3.159-1.26-1.708-.415-4.744-.449-4.744-.449a10.571 10.571 0 0 0-3.382 2.066c-2.637 2.408-2.525 7.306-2.101 9.255 0 0 .721-1.633 1.781-3.033-.005-.586.275-2.468.632-3.732.537-1.899 1.631-3.043 2.57-4.025.174-.18.342-.357.5-.53 0 0 .743 1.456.984 2.38Z" clip-rule="evenodd"/>
  <path stroke="#000" stroke-linecap="round" stroke-linejoin="round" d="M194.082 94.246s8.799-2.512 15.048-.379c3.895 1.33 5.253 3.6 5.415 4.006.564-.896 1.255-1.813 1.94-2.723 2.51-3.332 4.955-6.579.926-8.39-2.275-1.022-7.02-.06-10.541 1.122m-12.788 6.364s-.532.58-.774.9m.774-.9 4.375-2.833m8.413-3.531c-.308-.422-1.376-1.348-3.181-1.68-1.541-.285-4.137-.316-6.679.655m9.86 1.025c-.671.225-1.322.451-1.957.684m-7.903-1.709a10.571 10.571 0 0 0-3.382 2.066c-2.637 2.408-2.525 7.306-2.101 9.255 0 0 .721-1.633 1.781-3.033m3.702-8.288s3.036.034 4.744.45c1.382.335 3.159 1.259 3.159 1.259m-7.903-1.709s.743 1.457.984 2.38c.24.924.463 2.176.463 2.176m-1.447-4.556c-.158.174-.326.35-.5.531-.939.982-2.033 2.126-2.57 4.025-.357 1.264-.637 3.146-.632 3.732m5.149-3.732s4.113-1.992 6.456-2.847M129.85 52.809c-3.06 2.273-5.214.628-6.574-.904 1.734.082 4.931-.244 4.931-3.519 0-4.092-4.138-1.858-5.765-7.036-1.339-4.26 2.529-5.502 2.157-9.719-.371-4.217-3.333-4.817-3.333-9.036 0-3.826 1.789-4.152 4.878-8.466 3.09-4.315.752-5.617 5.611-9.072 4.374-3.11 9.186-1.044 11.268 0 1.372-1.423 4.939-2.56 8.247-1.918 4.638.9 3.621 3.435 6.099 5.047 2.477 1.613 5.404 0 7.887 3.908 2.812 4.426-.848 8.735 0 13.432 1.018 5.638 3.982 5.831 2.992 11.141-.986 5.282-5.475 4.8-5.475 9.14 0 4.34 3.534 5.656 5.475 5.242-.991 1.489-4.466 2.501-8.331.715"/>
  <defs>
    <linearGradient id="a" x1="25.511" x2="-7.696" y1="113.804" y2="118.076" gradientUnits="userSpaceOnUse">
      <stop stop-color="#5DCFAD"/>
      <stop offset="1" stop-color="#3FA687"/>
    </linearGradient>
    <linearGradient id="b" x1="59.639" x2="35.43" y1="70.931" y2="85.101" gradientUnits="userSpaceOnUse">
      <stop stop-color="#5DCFAD"/>
      <stop offset="1" stop-color="#3FA687"/>
    </linearGradient>
    <linearGradient id="c" x1="118.626" x2="78.183" y1="9.912" y2="5.772" gradientUnits="userSpaceOnUse">
      <stop stop-color="#5DCFAD"/>
      <stop offset="1" stop-color="#3FA687"/>
    </linearGradient>
    <linearGradient id="d" x1="58.569" x2="-4.587" y1="18.205" y2="62.939" gradientUnits="userSpaceOnUse">
      <stop stop-color="#5DCFAD"/>
      <stop offset="1" stop-color="#3FA687"/>
    </linearGradient>
    <linearGradient id="e" x1="58.569" x2="-4.587" y1="18.205" y2="62.939" gradientUnits="userSpaceOnUse">
      <stop stop-color="#5DCFAD"/>
      <stop offset="1" stop-color="#3FA687"/>
    </linearGradient>
    <linearGradient id="f" x1="150.543" x2="127.852" y1="37.033" y2="50.84" gradientUnits="userSpaceOnUse">
      <stop stop-color="#5DCFAD"/>
      <stop offset="1" stop-color="#3FA687"/>
    </linearGradient>
    <linearGradient id="g" x1="206.855" x2="195.95" y1="83.142" y2="100.849" gradientUnits="userSpaceOnUse">
      <stop stop-color="#5DCFAD"/>
      <stop offset="1" stop-color="#3FA687"/>
    </linearGradient>
  </defs>
</svg>